<svg width="32" height="32" viewBox="0 0 32 32" fill="none" xmlns="http://www.w3.org/2000/svg">
  <!-- Background circle with gradient -->
  <defs>
    <linearGradient id="bg-gradient" x1="0%" y1="0%" x2="100%" y2="100%">
      <stop offset="0%" style="stop-color:#6366f1;stop-opacity:1" />
      <stop offset="100%" style="stop-color:#8b5cf6;stop-opacity:1" />
    </linearGradient>
    <linearGradient id="doc-gradient" x1="0%" y1="0%" x2="100%" y2="100%">
      <stop offset="0%" style="stop-color:#ffffff;stop-opacity:1" />
      <stop offset="100%" style="stop-color:#f8fafc;stop-opacity:1" />
    </linearGradient>
  </defs>
  
  <!-- Main background -->
  <rect width="32" height="32" rx="6" fill="url(#bg-gradient)"/>
  
  <!-- Document base -->
  <rect x="7" y="6" width="14" height="18" rx="2" fill="url(#doc-gradient)" stroke="#e2e8f0" stroke-width="0.5"/>
  
  <!-- Document lines representing text -->
  <rect x="9" y="9" width="8" height="1" rx="0.5" fill="#64748b" opacity="0.7"/>
  <rect x="9" y="11.5" width="10" height="1" rx="0.5" fill="#64748b" opacity="0.7"/>
  <rect x="9" y="14" width="6" height="1" rx="0.5" fill="#64748b" opacity="0.7"/>
  
  <!-- AI spark/star icon -->
  <g transform="translate(18, 8)">
    <path d="M3 0L3.5 1.5L5 2L3.5 2.5L3 4L2.5 2.5L1 2L2.5 1.5L3 0Z" fill="#fbbf24" opacity="0.9"/>
    <path d="M6 3L6.3 3.7L7 4L6.3 4.3L6 5L5.7 4.3L5 4L5.7 3.7L6 3Z" fill="#f59e0b" opacity="0.8"/>
  </g>
  
  <!-- Collaboration cursors -->
  <g transform="translate(13, 18)">
    <!-- Cursor 1 -->
    <path d="M0 0L0 6L2 4L3 6L4 5L2 3L4 3L0 0Z" fill="#10b981"/>
    <!-- Cursor 2 -->
    <path d="M6 2L6 8L8 6L9 8L10 7L8 5L10 5L6 2Z" fill="#3b82f6" opacity="0.8"/>
  </g>
  
  <!-- Connection lines showing collaboration -->
  <path d="M15 19 Q18 16 21 19" stroke="#6366f1" stroke-width="1" fill="none" opacity="0.6" stroke-dasharray="1,1"/>
</svg>